<svg id="Capa_1" enable-background="new 0 0 512.959 512.959" height="512" viewBox="0 0 512.959 512.959" width="512" xmlns="http://www.w3.org/2000/svg"><g><g><path d="m295.485 433.029h-78.82v33.021c0 21.765 17.644 39.41 39.41 39.41 21.765 0 39.41-17.644 39.41-39.41z" fill="#d6d1d6"/><g id="XMLID_118_"><g><g><path d="m256.515 7.503c133.5 0 201.68 160.2 109.13 256.41l-45.16 46.94v30.72l.59 48.21h-129.12l.59-48.21v-30.72l-45.16-46.94c-60.99-63.4-52.18-154.58-.88-209.4 26.55-28.38 64.48-47.01 110.01-47.01z" fill="#f8f7f8"/></g></g></g><path d="m192.545 341.573-.138 11.283h64.973l.189-25.622c.131-17.791-6.635-34.94-18.878-47.849l-23.57-24.853c-57.604-60.743-49.283-148.102-.831-200.624 19.628-21.284 45.844-36.842 76.931-42.598-10.982-2.478-22.573-3.807-34.706-3.807-45.53 0-83.46 18.63-110.01 47.01-51.3 54.82-60.11 146 .88 209.4l45.16 46.94z" fill="#efedee"/><g><g id="XMLID_132_"><g><path d="m338.145 348.633v50.18c0 26.08-21.14 47.22-47.21 47.22h-68.84c-26.07 0-47.21-21.14-47.21-47.22v-50.18c0-3.9 3.16-7.06 7.05-7.06h149.16c3.89 0 7.05 3.16 7.05 7.06z" fill="#d6d1d6"/></g></g><path d="m266.09 421.696c-26.07 0-47.21-21.14-47.21-47.22v-32.903h-36.945c-3.89 0-7.05 3.16-7.05 7.06v50.18c0 26.08 21.14 47.22 47.21 47.22h68.84c17.769 0 33.251-9.827 41.307-24.339z" fill="#c7c0c7"/><g id="XMLID_133_"><g><path d="m338.145 373.763v25.05c0 3.49-.38 6.9-1.1 10.17h-161.06c-.72-3.27-1.1-6.68-1.1-10.17v-25.05z" fill="#c7c0c7"/></g></g></g><path d="m174.885 373.763v25.05c0 3.49.38 6.9 1.1 10.17h57.895c-9.225-8.618-15-20.885-15-34.507v-.713z" fill="#b8afb8"/></g><path d="m381.538 60.564c-2.541-3.271-7.252-3.864-10.524-1.324-3.271 2.541-3.864 7.252-1.324 10.524 20.691 26.645 31.71 59.713 31.026 93.112-.736 35.938-14.732 69.078-40.477 95.838l-45.16 46.942c-1.344 1.397-2.095 3.261-2.095 5.2v23.22h-16.886l32.303-173.873c.702-3.776-.751-7.579-3.792-9.925s-7.087-2.787-10.562-1.148l-12.592 5.937-9.031-6.355c-3.695-2.602-8.733-2.438-12.254.4l-7.604 6.133-10.463-6.868c-3.395-2.229-7.783-2.229-11.176 0l-10.464 6.868-7.605-6.134c-3.518-2.836-8.556-3.001-12.252-.4l-9.032 6.356-12.593-5.937c-3.474-1.637-7.521-1.197-10.562 1.148-3.041 2.346-4.494 6.149-3.792 9.924l11.804 63.533c.757 4.072 4.669 6.761 8.744 6.004 4.072-.757 6.76-4.671 6.004-8.744l-10.086-54.286 6.619 3.12c3.308 1.56 7.218 1.22 10.204-.883l8.354-5.878 7.508 6.055c3.456 2.788 8.271 3.024 11.982.588l10.755-7.059 10.755 7.059c3.711 2.436 8.526 2.199 11.981-.587l7.509-6.056 8.352 5.877c2.989 2.104 6.899 2.444 10.206.884l6.619-3.12-31.095 167.367h-48.654l-15.166-81.627c-.757-4.072-4.672-6.764-8.744-6.004-4.072.757-6.76 4.671-6.004 8.744l14.657 78.887h-16.886v-23.22c0-1.939-.751-3.802-2.095-5.2l-45.16-46.942c-40.697-42.303-51.698-102.136-28.71-156.149 22.988-54.012 73.734-87.565 132.436-87.565 34.651 0 66.5 11.36 92.104 32.851 3.172 2.663 7.903 2.25 10.566-.923s2.25-7.903-.923-10.566c-28.341-23.788-63.525-36.362-101.748-36.362-64.818 0-120.853 37.05-146.236 96.692s-13.236 125.71 31.703 172.423l43.064 44.765v20.198h-3.106c-8.024 0-14.553 6.528-14.553 14.553v50.186c0 25.691 17.804 47.292 41.718 53.141v14.093c0 25.866 21.044 46.91 46.91 46.91 7.98 0 15.873-2.05 22.824-5.929 3.617-2.018 4.914-6.586 2.895-10.204-2.018-3.617-6.586-4.914-10.204-2.895-4.722 2.635-10.087 4.027-15.516 4.027-17.595 0-31.91-14.315-31.91-31.91v-12.521h63.82v12.521c0 2.372-.272 4.769-.809 7.125-.92 4.039 1.607 8.059 5.646 8.979.561.128 1.121.189 1.673.189 3.422 0 6.513-2.357 7.306-5.835.786-3.448 1.184-6.966 1.184-10.458v-13.861c24.416-5.485 42.718-27.324 42.718-53.372v-50.187c0-8.024-6.528-14.553-14.553-14.553h-3.106v-20.198l43.064-44.765c28.405-29.526 43.85-66.156 44.664-105.931.756-36.823-11.381-73.267-34.173-102.619zm-50.988 340.833h-148.07c-.055-.854-.093-1.713-.093-2.581v-17.551h148.257v17.551c-.001.868-.038 1.727-.094 2.581zm-39.619 37.132h-68.831c-15.588 0-29.099-9.031-35.596-22.132h140.024c-6.498 13.101-20.01 22.132-35.597 22.132zm39.712-72.264h-148.256v-17.188h148.257v17.188z"/></g></svg>