<?xml version="1.0" encoding="iso-8859-1"?>
<!-- Generator: Adobe Illustrator 16.0.0, SVG Export Plug-In . SVG Version: 6.00 Build 0)  -->
<!DOCTYPE svg PUBLIC "-//W3C//DTD SVG 1.1//EN" "http://www.w3.org/Graphics/SVG/1.1/DTD/svg11.dtd">
<svg version="1.1" id="Capa_1" xmlns="http://www.w3.org/2000/svg" xmlns:xlink="http://www.w3.org/1999/xlink" x="0px" y="0px"
	 width="214.614px" height="214.613px" viewBox="0 0 214.614 214.613" style="enable-background:new 0 0 214.614 214.613;"
	 xml:space="preserve">
<g>
	<path d="M121.213,27.796c0.731,0,1.163,0.024,1.464,0.034l4.381-0.034c1.44-0.01,2.728-0.905,3.244-2.25
		c0.521-1.347,0.157-2.866-0.907-3.841c-9.205-8.427-20.659-12.7-34.054-12.7c-26.707,0-54.357,17.675-59.967,29.595
		c-6.632,14.098-14.992,22.584-15.078,22.672c-0.681,0.685-1.051,1.622-1.02,2.587c0.031,0.967,0.458,1.877,1.188,2.519
		l21.902,19.273c0.814,0.719,1.937,0.979,3.019,0.76c1.067-0.212,1.995-0.951,2.481-1.934c0.181-0.368,2.159-3.83,8.761-3.224
		c8.48,0.77,14.007,4.591,14.062,4.625c0.609,0.431,1.317,0.645,2.026,0.645c0.852,0,1.698-0.312,2.368-0.922l21.026-19.274
		c1.153-1.057,1.465-2.75,0.767-4.153l-8.812-17.622C97.23,29.04,115.645,27.796,121.213,27.796z M80.992,42.86
		c-0.517,0.996-0.527,2.18-0.027,3.183l8.456,16.907L72.262,78.682c-2.892-1.535-8.148-3.785-14.999-4.409
		c-0.753-0.07-1.472-0.098-2.153-0.098c-5.072,0-8.621,1.776-10.875,3.785L27.757,63.458c3.227-3.788,9.003-11.336,13.962-21.874
		c4.227-8.98,29.181-25.57,53.622-25.57c7.851,0,14.914,1.678,21.098,5.005C106.963,21.898,89.808,25.907,80.992,42.86z"/>
	<path d="M24.882,108.449c0.64,0.541,1.444,0.835,2.272,0.835c0.103,0,0.205-0.003,0.308-0.014c0.938-0.082,1.8-0.537,2.396-1.263
		l12.265-14.893c1.204-1.458,1.033-3.602-0.38-4.853l-22.778-20.15c-0.694-0.618-1.595-0.912-2.539-0.873
		c-0.931,0.06-1.797,0.482-2.409,1.181L0.876,83.313c-0.623,0.702-0.938,1.629-0.866,2.565c0.065,0.939,0.506,1.809,1.222,2.418
		L24.882,108.449z M16.95,75.686l17.617,15.583l-7.85,9.532L8.49,85.273L16.95,75.686z"/>
	<path d="M213.019,171.256l-59.888-57.451l-24.387-23.797l50.241-46.442l2.512,2.512c0.657,0.659,1.547,1.026,2.478,1.026
		c0.048,0,0.1,0,0.147-0.003c0.979-0.042,1.896-0.491,2.528-1.241l18.528-21.933c0.608-0.722,0.903-1.658,0.811-2.594
		c-0.089-0.942-0.554-1.805-1.286-2.397l-6.861-5.534c-1.28-1.027-3.104-1.037-4.391-0.01L171.71,30.783
		c-0.777,0.625-1.253,1.55-1.308,2.544c-0.058,0.996,0.314,1.97,1.02,2.674l2.604,2.604l-50.306,46.502l-18.555-18.106
		c-1.304-1.273-3.378-1.33-4.747-0.134L76.328,87.894c-0.719,0.626-1.15,1.518-1.201,2.462c-0.048,0.951,0.291,1.879,0.945,2.573
		l18.175,19.428l-2.296,2.125l-8.853-8.959c-1.287-1.307-3.381-1.388-4.774-0.195L1.762,171.126
		c-0.404,0.353-0.726,0.787-0.934,1.273c-2.56,5.931,1.109,15.301,9.127,23.315c6.098,6.102,13.401,9.894,19.058,9.894
		c1.943,0,3.672-0.432,5.137-1.277c0.263-0.15,0.506-0.338,0.722-0.554l70.65-70.596c1.362-1.366,1.369-3.573,0.014-4.942
		l-8.668-8.768l2.159-1.994l80.653,86.221c0.236,0.246,0.51,0.466,0.805,0.637c1.465,0.849,3.192,1.273,5.137,1.273
		c5.653,0,12.956-3.792,19.058-9.891c8.019-8.015,11.69-17.385,9.127-23.315C213.625,171.968,213.358,171.578,213.019,171.256z
		 M195.631,20.625l1.882,1.518l-13.757,16.281l-4.609-4.608L195.631,20.625z M30.331,198.407c-2.443,0.891-9.103-1.327-15.417-7.648
		c-6.043-6.04-8.299-12.217-7.826-14.965l73.316-63.016l17.699,17.904L30.331,198.407z M83.665,90.791l18.917-16.516l15.985,15.595
		L99.39,107.604L83.665,90.791z M199.724,190.759c-6.28,6.287-12.892,8.512-15.376,7.662l-80.174-85.704l19.414-17.944l24.667,24.07
		l59.282,56.865C208.071,178.415,205.83,184.657,199.724,190.759z"/>
	<path d="M20.208,187.183c0.349,0.356,0.805,0.531,1.256,0.531c0.441,0,0.883-0.165,1.222-0.496l60.671-59.07
		c0.691-0.674,0.708-1.786,0.034-2.478c-0.681-0.688-1.786-0.702-2.478-0.034l-60.675,59.069
		C19.547,185.38,19.534,186.491,20.208,187.183z"/>
	<path d="M77.892,119.91c-0.633-0.732-1.742-0.808-2.471-0.178l-64.302,55.706c-0.732,0.637-0.811,1.738-0.178,2.471
		c0.346,0.396,0.832,0.605,1.325,0.605c0.407,0,0.811-0.141,1.146-0.428l64.306-55.706C78.45,121.751,78.528,120.643,77.892,119.91z
		"/>
	<path d="M29.424,194.212c0.345,0.339,0.791,0.51,1.239,0.51c0.452,0,0.9-0.171,1.239-0.517l60.011-60.38
		c0.681-0.688,0.677-1.801-0.007-2.479c-0.681-0.678-1.793-0.678-2.478,0.007l-60.011,60.381
		C28.739,192.426,28.743,193.531,29.424,194.212z"/>
</g>
<g>
</g>
<g>
</g>
<g>
</g>
<g>
</g>
<g>
</g>
<g>
</g>
<g>
</g>
<g>
</g>
<g>
</g>
<g>
</g>
<g>
</g>
<g>
</g>
<g>
</g>
<g>
</g>
<g>
</g>
</svg>
